<svg width="35" height="35" viewBox="0 0 35 35" fill="none" xmlns="http://www.w3.org/2000/svg">
<mask id="path-1-outside-1_2461_6148" maskUnits="userSpaceOnUse" x="-0.5" y="-0.5" width="36" height="36" fill="black">
<rect fill="white" x="-0.5" y="-0.5" width="36" height="36"/>
<path d="M17.5 0.5C19.7091 0.5 21.5 2.29086 21.5 4.5V13.5H30.5C32.7091 13.5 34.5 15.2909 34.5 17.5C34.5 19.7091 32.7091 21.5 30.5 21.5H21.5V30.5C21.5 32.7091 19.7091 34.5 17.5 34.5C15.2909 34.5 13.5 32.7091 13.5 30.5V21.5H4.5C2.29086 21.5 0.5 19.7091 0.5 17.5C0.5 15.2909 2.29086 13.5 4.5 13.5H13.5V4.5C13.5 2.29086 15.2909 0.5 17.5 0.5Z"/>
</mask>
<path d="M17.5 0.5C19.7091 0.5 21.5 2.29086 21.5 4.5V13.5H30.5C32.7091 13.5 34.5 15.2909 34.5 17.5C34.5 19.7091 32.7091 21.5 30.5 21.5H21.5V30.5C21.5 32.7091 19.7091 34.5 17.5 34.5C15.2909 34.5 13.5 32.7091 13.5 30.5V21.5H4.5C2.29086 21.5 0.5 19.7091 0.5 17.5C0.5 15.2909 2.29086 13.5 4.5 13.5H13.5V4.5C13.5 2.29086 15.2909 0.5 17.5 0.5Z" fill="#CECFF5"/>
<path d="M21.5 4.5H22H21.5ZM21.5 13.5H21V14H21.5V13.5ZM30.5 21.5V22V21.5ZM21.5 21.5V21H21V21.5H21.5ZM13.5 30.5H13H13.5ZM13.5 21.5H14V21H13.5V21.5ZM4.5 13.5V13V13.5ZM13.5 13.5V14H14V13.5H13.5ZM17.5 0.5V1C19.433 1 21 2.567 21 4.5H21.5H22C22 2.01472 19.9853 0 17.5 0V0.5ZM21.5 4.5H21V13.5H21.5H22V4.5H21.5ZM21.5 13.5V14H30.5V13.5V13H21.5V13.5ZM30.5 13.5V14C32.433 14 34 15.567 34 17.5H34.5H35C35 15.0147 32.9853 13 30.5 13V13.5ZM34.5 17.5H34C34 19.433 32.433 21 30.5 21V21.5V22C32.9853 22 35 19.9853 35 17.5H34.5ZM30.5 21.5V21H21.5V21.5V22H30.5V21.5ZM21.5 21.5H21V30.5H21.5H22V21.5H21.5ZM21.5 30.5H21C21 32.433 19.433 34 17.5 34V34.5V35C19.9853 35 22 32.9853 22 30.5H21.5ZM17.5 34.5V34C15.567 34 14 32.433 14 30.5H13.5H13C13 32.9853 15.0147 35 17.5 35V34.5ZM13.5 30.5H14V21.5H13.5H13V30.5H13.5ZM13.5 21.5V21H4.5V21.5V22H13.5V21.5ZM4.5 21.5V21C2.567 21 1 19.433 1 17.5H0.5H0C0 19.9853 2.01472 22 4.5 22V21.5ZM0.5 17.5H1C1 15.567 2.567 14 4.5 14V13.5V13C2.01472 13 0 15.0147 0 17.5H0.5ZM4.5 13.5V14H13.5V13.5V13H4.5V13.5ZM13.5 13.5H14V4.5H13.5H13V13.5H13.5ZM13.5 4.5H14C14 2.567 15.567 1 17.5 1V0.5V0C15.0147 0 13 2.01472 13 4.5H13.5Z" fill="#6064DE" mask="url(#path-1-outside-1_2461_6148)"/>
</svg>
